<svg width="32" height="32" viewBox="0 0 32 32" fill="none" xmlns="http://www.w3.org/2000/svg">
  <!-- Background circle with honey gradient -->
  <circle cx="16" cy="16" r="16" fill="url(#honeyGradient)"/>
  
  <!-- Bee body -->
  <ellipse cx="16" cy="18" rx="8" ry="6" fill="#FFD700" stroke="#D4A574" stroke-width="1"/>
  
  <!-- Bee stripes -->
  <rect x="12" y="15" width="8" height="1.5" fill="#2C1810"/>
  <rect x="12" y="17" width="8" height="1.5" fill="#2C1810"/>
  <rect x="12" y="19" width="8" height="1.5" fill="#2C1810"/>
  <rect x="12" y="21" width="8" height="1.5" fill="#2C1810"/>
  
  <!-- Bee head -->
  <circle cx="16" cy="12" r="4" fill="#FFD700" stroke="#D4A574" stroke-width="1"/>
  
  <!-- Bee eyes -->
  <circle cx="14" cy="11" r="1" fill="#2C1810"/>
  <circle cx="18" cy="11" r="1" fill="#2C1810"/>
  
  <!-- Bee antennae -->
  <line x1="14" y1="9" x2="13" y2="7" stroke="#2C1810" stroke-width="1.5" stroke-linecap="round"/>
  <line x1="18" y1="9" x2="19" y2="7" stroke="#2C1810" stroke-width="1.5" stroke-linecap="round"/>
  <circle cx="13" cy="7" r="1" fill="#2C1810"/>
  <circle cx="19" cy="7" r="1" fill="#2C1810"/>
  
  <!-- Bee wings -->
  <ellipse cx="12" cy="14" rx="3" ry="2" fill="#E6F3FF" stroke="#B8D4F0" stroke-width="0.5" opacity="0.8"/>
  <ellipse cx="20" cy="14" rx="3" ry="2" fill="#E6F3FF" stroke="#B8D4F0" stroke-width="0.5" opacity="0.8"/>
  
  <!-- Honey drops -->
  <ellipse cx="8" cy="24" rx="2" ry="3" fill="#FFA500" opacity="0.7"/>
  <ellipse cx="24" cy="24" rx="2" ry="3" fill="#FFA500" opacity="0.7"/>
  
  <!-- Heart symbol for "Amor" -->
  <path d="M16 8 C14 6, 10 6, 10 10 C10 12, 16 16, 16 16 C16 16, 22 12, 22 10 C22 6, 18 6, 16 8 Z" fill="#FF6B6B" opacity="0.8"/>
  
  <!-- Gradient definition -->
  <defs>
    <linearGradient id="honeyGradient" x1="0%" y1="0%" x2="100%" y2="100%">
      <stop offset="0%" style="stop-color:#FFD700;stop-opacity:1" />
      <stop offset="50%" style="stop-color:#D4A574;stop-opacity:1" />
      <stop offset="100%" style="stop-color:#B8860B;stop-opacity:1" />
    </linearGradient>
  </defs>
</svg>
